PathFileType	4	(X/Y/Z)	./resultDataOpenSim/trcMotMarkerGrf/sub06/qtm-01-07.trc
DataRate	CameraRate	NumFrames	NumMarkers	Units	OrigDataRate	OrigDataStartFrame	OrigNumFrames
250.000000	250.000000	9	24	m	250.000000	184	489
Frame#	Time	L.Toe.Tip			R.Toe.Tip			L.Ankle.Lat			R.Ankle.Lat			L.Ankle.Med			R.Ankle.Med			L.Heel			R.Heel			L.Knee.Lat			R.Knee.Lat			L.Knee.Med			R.Knee.Med			L.Thigh.Upper			R.Thigh.Upper			L.ASIS			R.ASIS			V.Sacral			L.Acromium			R.Acromium			C7			L.Elbow			R.Elbow			L.Wrist.Lat			R.Wrist.Lat
		X1	Y1	Z1	X2	Y2	Z2	X3	Y3	Z3	X4	Y4	Z4	X5	Y5	Z5	X6	Y6	Z6	X7	Y7	Z7	X8	Y8	Z8	X9	Y9	Z9	X10	Y10	Z10	X11	Y11	Z11	X12	Y12	Z12	X13	Y13	Z13	X14	Y14	Z14	X15	Y15	Z15	X16	Y16	Z16	X17	Y17	Z17	X18	Y18	Z18	X19	Y19	Z19	X20	Y20	Z20	X21	Y21	Z21	X22	Y22	Z22	X23	Y23	Z23	X24	Y24	Z24

184	0.732	0.071138344	0.035246355	-0.053345495	-0.61378023	0.078262974	0.093866914	-0.04949977	0.067826234	-0.082838438	-0.60942705	0.21703574	0.12628071	-0.057467047	0.078569415	0.0041885833	-0.56872347	0.20263168	0.045764055	-0.12905206	0.039851164	-0.046211801	-0.62952683	0.26291932	0.061431743	0.0047827208	0.43942622	-0.090926018	-0.26448447	0.38193984	0.16766719	-0.033345911	0.43238835	0.024928555	-0.25759778	0.35840121	0.033876772	-0.1578924	0.79981203	-0.1665931	-0.23652476	0.74557558	0.16685623	-0.10564868	0.83280756	-0.10660332	-0.14463944	0.80595879	0.1356811	-0.31185043	0.89605199	0.0023570395	-0.19605467	1.2954303	-0.18960337	-0.19316906	1.2931848	0.17391952	-0.27341687	1.3342467	-0.0089079699	-0.27994544	0.99155726	-0.22482422	-0.22693194	0.97335997	0.24925055	-0.19455974	0.76879834	-0.27648032	-0.016240209	0.8402755	0.24049821
185	0.736	0.071029916	0.035261652	-0.053541053	-0.59836146	0.080584408	0.09491726	-0.049668694	0.067720801	-0.083015918	-0.59625192	0.21981897	0.12649974	-0.05737884	0.078712381	0.0040071285	-0.55579174	0.20580388	0.045956499	-0.12917012	0.039837315	-0.046222375	-0.61742656	0.2649549	0.061782299	0.0075304473	0.43870932	-0.091626646	-0.25131412	0.38265455	0.16854169	-0.031041049	0.43186449	0.024040309	-0.24483092	0.36028168	0.034549047	-0.15168211	0.80105877	-0.16672744	-0.23010193	0.74682886	0.16671836	-0.099387348	0.83381599	-0.10683574	-0.13693014	0.80702986	0.13451335	-0.30719926	0.89773583	0.0024093249	-0.18890015	1.2969852	-0.1896202	-0.18693696	1.2946979	0.17395734	-0.26662303	1.3358063	-0.009090471	-0.2715448	0.99262173	-0.22536967	-0.22189902	0.97481366	0.24836073	-0.1843434	0.77040979	-0.27633123	-0.013034426	0.83874724	0.24082995
186	0.74	0.070927101	0.035275657	-0.053725492	-0.58251251	0.082634291	0.095885553	-0.049839122	0.067636738	-0.083170336	-0.58275316	0.22226778	0.1266823	-0.057319522	0.078896864	0.0038314084	-0.54257204	0.20869846	0.046170965	-0.12928655	0.03987114	-0.046310674	-0.6049099	0.26662869	0.062104714	0.010097707	0.43799815	-0.092308089	-0.23809383	0.3835675	0.16936961	-0.028729432	0.43143989	0.023259006	-0.23207096	0.36232868	0.035176105	-0.145605	0.80220889	-0.16688033	-0.22577676	0.74805431	0.16662558	-0.093206552	0.83482182	-0.10705443	-0.12912399	0.8082628	0.13346635	-0.30153072	0.89922782	0.0022309799	-0.18179988	1.2986101	-0.18960701	-0.18076817	1.2962724	0.17403248	-0.25987368	1.3373993	-0.0092573238	-0.26315414	0.99375892	-0.22588558	-0.21693054	0.97634285	0.24748808	-0.17405669	0.77213587	-0.27614894	-0.010097299	0.83733151	0.24121204
187	0.744	0.070836132	0.035282813	-0.053894742	-0.56632645	0.084422775	0.096792741	-0.050015499	0.067565934	-0.083321695	-0.56896603	0.22430225	0.12683749	-0.057362504	0.079097473	0.0037079689	-0.5290714	0.2111823	0.046426912	-0.12939098	0.039930682	-0.046422246	-0.59217702	0.26800597	0.062441253	0.01250385	0.43731613	-0.092968955	-0.22483193	0.38468148	0.17015824	-0.026268761	0.43116423	0.022650779	-0.21928119	0.3644713	0.035766601	-0.13965933	0.80326701	-0.16704551	-0.22319285	0.74947948	0.1666354	-0.087147886	0.83582932	-0.10726672	-0.1215689	0.80970318	0.13272306	-0.29466416	0.90066169	0.0016086719	-0.17475409	1.3002986	-0.18956502	-0.1746667	1.2979036	0.17414017	-0.25317601	1.3390212	-0.0093988004	-0.25477283	0.99496338	-0.22637298	-0.21194977	0.9779619	0.2466157	-0.16370529	0.77396812	-0.27593373	-0.0073307363	0.83601687	0.24162002
188	0.748	0.070757758	0.035282655	-0.054052884	-0.54988725	0.085959168	0.097674405	-0.05021114	0.067501779	-0.083494423	-0.55496147	0.22590312	0.12697579	-0.057509082	0.079296079	0.003640657	-0.51528251	0.2132186	0.046657325	-0.12947737	0.039990391	-0.046496094	-0.57936205	0.26909882	0.06276679	0.014764836	0.43667662	-0.093599853	-0.21155561	0.38599912	0.17090506	-0.023612306	0.43104695	0.022237526	-0.20645126	0.36664402	0.036327282	-0.13378732	0.80425543	-0.16722384	-0.22076797	0.75129661	0.16673769	-0.081200759	0.83684185	-0.10748159	-0.1145334	0.81134685	0.13236792	-0.28703774	0.90227522	0.00043820658	-0.16776183	1.3020473	-0.18949371	-0.16862573	1.2995886	0.17427425	-0.24652689	1.3406709	-0.0095110792	-0.24639115	0.99622292	-0.2268526	-0.206921	0.97966903	0.24575976	-0.15329821	0.77589417	-0.27569056	-0.0046172456	0.83479693	0.24202738
189	0.752	0.070688743	0.035276738	-0.0542014	-0.53328403	0.087262235	0.098583739	-0.050424886	0.067447012	-0.08369152	-0.54082024	0.22711582	0.12710692	-0.057679481	0.079481677	0.0035931862	-0.50120001	0.21484707	0.046776653	-0.12954249	0.040043507	-0.046495497	-0.5664861	0.26989471	0.063034191	0.016895593	0.43608096	-0.094183851	-0.19829817	0.38751833	0.17159938	-0.0208168	0.43106715	0.021992188	-0.19356505	0.36881931	0.036859524	-0.12792984	0.80519304	-0.16742233	-0.21673237	0.75338575	0.16673129	-0.075305844	0.83786578	-0.10770506	-0.10796778	0.81313147	0.13230698	-0.27944244	0.90419155	-0.0010905383	-0.16082132	1.3038534	-0.1893966	-0.16262713	1.3013216	0.17443073	-0.23991501	1.342346	-0.0095959068	-0.23799781	0.99752595	-0.2273491	-0.20184943	0.98145235	0.2449497	-0.14284387	0.77790068	-0.27542403	-0.0019259345	0.83367607	0.24242802
190	0.756	0.070625558	0.035267013	-0.054337233	-0.51659674	0.088358173	0.099569141	-0.050630211	0.067413467	-0.083885718	-0.52659789	0.22802022	0.12722862	-0.057801355	0.079647315	0.00353467	-0.48687174	0.21613514	0.046802632	-0.12958396	0.040099933	-0.046408599	-0.55351487	0.27038975	0.06322647	0.018912674	0.43552712	-0.094704986	-0.18509388	0.38923998	0.17223075	-0.018061866	0.43116726	0.021821524	-0.1806199	0.37102067	0.037373108	-0.12211418	0.80608025	-0.16764441	-0.21039713	0.75537026	0.16634325	-0.069396261	0.83890952	-0.10793491	-0.10164717	0.81498713	0.13237581	-0.2725662	0.90632101	-0.0024669126	-0.1539272	1.3057113	-0.18927827	-0.15665389	1.3030922	0.17460501	-0.23333111	1.3440402	-0.0096570481	-0.22959905	0.99887052	-0.22786068	-0.19676411	0.98330717	0.24419722	-0.13234516	0.77998038	-0.27513266	0.00071007376	0.83266189	0.24282988
191	0.76	0.070567813	0.035254946	-0.054456106	-0.49986041	0.089267606	0.10065204	-0.050796621	0.067405774	-0.084044843	-0.51231202	0.22869579	0.1273305	-0.057866403	0.079792449	0.0034657403	-0.4723903	0.21712918	0.046880818	-0.12960483	0.040168777	-0.046257061	-0.54043792	0.27059682	0.063360571	0.020832913	0.43501717	-0.095151972	-0.17197901	0.3911716	0.1727915	-0.015517457	0.43128242	0.021636661	-0.1676367	0.37327506	0.037882927	-0.11647707	0.80690625	-0.16789105	-0.20234987	0.75701048	0.16551531	-0.063425924	0.83998055	-0.10816221	-0.09541821	0.81687756	0.13246867	-0.26647374	0.908481	-0.0031290722	-0.14707064	1.3076119	-0.1891379	-0.15069414	1.3048884	0.17478943	-0.22676878	1.3457491	-0.0096964593	-0.2212269	1.0002572	-0.22834154	-0.19168934	0.98523686	0.2434899	-0.12180088	0.78213473	-0.2748114	0.0032576797	0.83175882	0.24324187
192	0.764	0.070517455	0.035241617	-0.054554243	-0.483052	0.089996445	0.10182614	-0.050914345	0.067410365	-0.084157599	-0.49795631	0.22919644	0.12741332	-0.057904406	0.079921475	0.0034021244	-0.45779965	0.21782616	0.047147381	-0.12961813	0.040248471	-0.046101713	-0.52726482	0.27052618	0.063454456	0.022668647	0.43455438	-0.095519399	-0.15898507	0.39331494	0.17327513	-0.013211125	0.4313807	0.021425014	-0.15463196	0.37557815	0.038388552	-0.11115813	0.80767028	-0.16815802	-0.19365758	0.75839364	0.16446147	-0.057386445	0.84108212	-0.10838388	-0.089214978	0.81878906	0.13254086	-0.2607516	0.91055038	-0.0028809209	-0.14024382	1.309545	-0.18897219	-0.14473318	1.3067007	0.17497666	-0.22022024	1.3474726	-0.0097113523	-0.21290252	1.001677	-0.22875025	-0.18662932	0.987239	0.24281769	-0.11121092	0.78436621	-0.27445658	0.0057084984	0.83096999	0.24366764
